<svg xmlns="http://www.w3.org/2000/svg" viewBox="0 0 500 500"><defs><style>.cls-1{fill:#fff;}.cls-2,.cls-7{fill:#6a8185;}.cls-2{opacity:0.2;}.cls-3{fill:#3e2d4a;}.cls-4{fill:#fefada;}.cls-5{fill:#ca9661;}.cls-6{fill:#6e6c7b;}.cls-8{fill:#e7bd9f;}.cls-9{fill:#34263b;}.cls-10{fill:#a0444e;}.cls-11{fill:#c87d79;}.cls-12{fill:#a34d5b;}.cls-13{fill:#515562;}.cls-14{fill:#44324e;}.cls-15{fill:#863a42;}.cls-16{fill:#d3d0b1;}.cls-17{fill:#68818d;}.cls-18{fill:#493558;}.cls-19{fill:#b94d59;}.cls-20{fill:#c37e59;}.cls-21{fill:#57495b;}.cls-22{fill:#323044;}.cls-23{fill:#a36e4c;}.cls-24{fill:#9b434c;}.cls-25{fill:#7f6873;}.cls-26{fill:#dc9a8e;}.cls-27{fill:#934048;}</style></defs><g id="BACKGROUND"><rect class="cls-1" width="500" height="500"/></g><g id="OBJECTS"><path class="cls-2" d="M120.68,113.29s76.9-87.51,166.2-45,13.1,81.08,29,80,94.6-63.87,127.32,33.65,12,151.11-53.37,158.76,27.49,38.3-11,65.27-183.26,60.16-217.06,15.38.27-100.92.27-100.92-42.26,72.08-78.6,33.29-36.39-138.12.4-153.71,63.75-33.9,45.72-32.59S96,140.72,120.68,113.29Z"/><path class="cls-3" d="M218,228.81s-28.7-2-37.8-33.14-41-57.59-46.12-69,35.24-14.16,57.88,6.14S232.27,205.48,218,228.81Z"/><path class="cls-4" d="M214.09,226.08c-1.12-1.17-2.26-5.15-4-11.16-4.6-16-13.17-45.9-34.61-66.4-15-14.34-24.22-20.27-29.32-22.71-5.54-2.66-7.55-1.9-7.56-1.89l-.2-.46c.32-.14,8.33-3.14,37.42,24.7,21.54,20.6,30.13,50.53,34.75,66.62,1.64,5.73,2.83,9.87,3.87,10.95Z"/><path class="cls-4" d="M170.5,143.67a2,2,0,0,1-1.11-.61c-4.87-4.36-24.45-4-24.65-3.95v-.5c.81,0,20-.41,25,4.07.52.47.77.52.83.47,1-.71-2.93-11.53-4.83-16.73a56.62,56.62,0,0,1-1.85-5.39l.5-.06c0,.45.87,2.69,1.82,5.28,3.89,10.63,5.79,16.54,4.64,17.32A.6.6,0,0,1,170.5,143.67Z"/><path class="cls-4" d="M188.82,165.4a2.41,2.41,0,0,1-1.19-.42c-6.08-3.68-22.44-1.36-22.61-1.34l-.07-.5c.68-.09,16.71-2.36,22.94,1.42.57.34,1,.43,1.22.25,1.13-.82-.26-6.73-1.74-13-1.67-7.06-3.56-15.06-3.18-20.46l.5,0c-.37,5.33,1.51,13.29,3.17,20.32,1.88,8,2.88,12.52,1.54,13.5A1,1,0,0,1,188.82,165.4Z"/><path class="cls-4" d="M202.07,191.31c-.47,0-.84-.55-1.08-1C197.35,184,175.82,179,175.6,179l.11-.49c.9.2,22,5,25.71,11.58.43.75.65.73.67.73.95-.23,1.34-7.05,1.71-13.65.49-8.82,1.11-19.79,3.26-25.8l.47.17c-2.12,5.94-2.74,16.87-3.23,25.65-.51,9.07-.84,13.82-2.09,14.11Z"/><path class="cls-4" d="M209.25,215.7c-2.38,0-7.26-3-12.8-6.39-5.13-3.15-10.44-6.4-14-7.38l.13-.48c3.62,1,9,4.27,14.13,7.43,5.66,3.48,11.52,7.07,13.15,6.19a1,1,0,0,0,.44-.9c.2-5.8,9.12-26.34,9.5-27.22l.45.2c-.09.22-9.25,21.34-9.45,27a1.44,1.44,0,0,1-.7,1.32A1.74,1.74,0,0,1,209.25,215.7Z"/><path class="cls-5" d="M228.42,271.28s26.47-11.26,25-43.64,20-67.79,21.18-80.27-37.93-1.93-52.75,24.63S207.3,253.86,228.42,271.28Z"/><path class="cls-4" d="M231.19,267.43l-.45-.21c.63-1.36.4-5.66.09-11.62-.86-16.71-2.47-47.82,11.2-74.3,18.48-35.81,27-35.56,27.36-35.53l0,.5c-.07,0-8.64-.08-26.88,35.26-13.6,26.36-12,57.38-11.14,74C231.66,261.83,231.87,266,231.19,267.43Z"/><path class="cls-4" d="M245.42,175.35a.39.39,0,0,1-.15,0c-1.34-.36-1.47-6.56-1.25-17.88.06-2.76.11-5.14,0-5.58l.49-.11a54.79,54.79,0,0,1,0,5.7c-.11,5.54-.34,17.06.88,17.39.07,0,.29-.11.63-.71,3.28-5.88,21.53-11.73,22.31-12l.15.48c-.19.05-18.84,6-22,11.74C246.23,174.81,245.87,175.35,245.42,175.35Z"/><path class="cls-4" d="M235,201.89a.86.86,0,0,1-.28,0c-1.59-.49-2.13-5.12-2.94-13.27-.71-7.19-1.52-15.33-3.6-20.25l.46-.19c2.11,5,2.92,13.17,3.64,20.39.64,6.39,1.24,12.43,2.58,12.84.29.08.64-.13,1.07-.64,4.66-5.6,20.56-8.67,21.23-8.79l.1.49c-.17,0-16.4,3.16-21,8.62A1.87,1.87,0,0,1,235,201.89Z"/><path class="cls-4" d="M231.06,230.67c-1.28,0-3.13-4.37-6.51-12.66s-7.46-18.28-11.4-23.21l.39-.32c4,5,8.14,15.16,11.47,23.34,2.48,6.07,5,12.35,6,12.35h0s.24,0,.4-.9c1.42-7.43,19.77-18.83,20.55-19.32l.26.43c-.19.12-18.94,11.77-20.32,19-.1.54-.29,1.26-.84,1.31Z"/><path class="cls-4" d="M231.74,256.16l-.22,0a1.43,1.43,0,0,1-1.09-1c-2.05-5.33-17.58-22.32-17.74-22.49l.37-.34c.65.7,15.76,17.23,17.84,22.65.16.43.39.66.7.71,1.82.29,6.2-5,10.43-10.13,3.85-4.67,7.84-9.51,10.94-11.62l.28.41c-3,2.08-7,6.88-10.84,11.53C237.86,251.36,233.91,256.16,231.74,256.16Z"/><path class="cls-5" d="M152.58,369.23s-23-17.29-50.27.22S33.59,386,22.22,391.28s17.3,33.81,47.71,33.34S148.07,396.23,152.58,369.23Z"/><path class="cls-4" d="M55.57,402.78c-28.8,0-32-5.94-32.15-6.22l.45-.22c0,.08,4.29,7.53,44,5.63,29.63-1.41,55.68-18.33,69.67-27.41,5.26-3.41,8.73-5.66,10.34-5.81l0,.5c-1.49.13-5.11,2.48-10.11,5.73-14,9.11-40.16,26.07-69.93,27.49C63.33,402.69,59.24,402.78,55.57,402.78Z"/><path class="cls-4" d="M41.38,415.46l-.33-.37A55.3,55.3,0,0,1,46,412.24c4.85-2.68,14.94-8.24,14.62-9.46,0-.07-.23-.19-.93-.19h-.08c-6.76,0-20.86-12.78-21.46-13.32l.34-.37c.14.13,14.55,13.19,21.12,13.19h.16c.54,0,1.2.07,1.33.56.36,1.34-4.95,4.56-14.86,10C43.8,414,41.72,415.16,41.38,415.46Z"/><path class="cls-4" d="M63.56,420.92l-.4-.3c3.26-4.32,9.94-9.12,15.83-13.36,5.22-3.75,10.14-7.29,9.83-8.66-.07-.28-.44-.49-1.09-.6-7.18-1.24-17.79-13.46-18.24-14l.38-.33c.11.13,10.94,12.61,17.95,13.82.88.15,1.37.47,1.48,1,.37,1.62-3.37,4.4-10,9.18C73.42,411.88,66.77,416.66,63.56,420.92Z"/><path class="cls-4" d="M94,420.72l-.46-.18c2.32-6,9-14.64,14.46-21.62,4-5.22,8.24-10.62,7.67-11.42,0,0-.16-.18-1,.11-7.15,2.49-26.2-7.69-27-8.12l.24-.44c.2.1,19.67,10.51,26.6,8.09.52-.18,1.24-.37,1.56.07.75,1.05-2.12,4.84-7.68,12C103,406.18,96.3,414.84,94,420.72Z"/><path class="cls-4" d="M127,402.18l-.48-.15c.29-.91,7-22.26,10.69-26.78a1,1,0,0,0,.26-1c-.66-1.74-7.44-2.87-14-4-6-1-12.15-2-15.54-3.66l.22-.45c3.32,1.6,9.46,2.63,15.4,3.62,7.31,1.22,13.62,2.27,14.38,4.27a1.46,1.46,0,0,1-.34,1.46C134,380,127.06,402,127,402.18Z"/><path class="cls-6" d="M296.93,386.85s-24.57-15-50,5.13-66.77,23.21-77.57,29.55,20.51,32,50.74,28.52S295.08,414.17,296.93,386.85Z"/><path class="cls-4" d="M189.29,430.51c-15.66,0-18.1-3.63-18.23-3.84l.42-.26-.21.13.21-.14c.05.07,5,7.07,44.32,1.31,29.35-4.3,53.63-23.67,66.67-34.08,4.89-3.91,8.13-6.49,9.72-6.79l.09.49c-1.47.28-4.84,3-9.5,6.69-13.08,10.44-37.42,29.87-66.91,34.19A187.53,187.53,0,0,1,189.29,430.51Z"/><path class="cls-4" d="M190.78,443.72l-.37-.33a53.17,53.17,0,0,1,4.63-3.32c4.56-3.14,14.06-9.67,13.62-10.85,0-.06-.25-.17-.94-.09C201,429.89,185.64,418.46,185,418l.3-.4c.16.12,15.9,11.77,22.38,11.06.54-.06,1.28-.09,1.47.42.49,1.3-4.48,5-13.81,11.43C193,442,191.08,443.39,190.78,443.72Z"/><path class="cls-4" d="M213.38,447l-.43-.26c2.83-4.62,9-10.05,14.46-14.84,4.82-4.24,9.38-8.24,8.93-9.58-.1-.27-.48-.44-1.14-.49-7.27-.53-19-11.66-19.52-12.14l.35-.36c.12.12,12.12,11.48,19.21,12,.89.07,1.41.34,1.57.83.53,1.58-2.92,4.71-9.07,10.12C222.31,437,216.17,442.44,213.38,447Z"/><path class="cls-4" d="M243.66,443.82l-.48-.14c1.73-6.14,7.58-15.44,12.28-22.92,3.52-5.59,7.16-11.38,6.52-12.11,0,0-.18-.17-1,.2-6.86,3.18-26.82-5.1-27.67-5.45l.2-.46c.2.08,20.6,8.54,27.26,5.45.5-.22,1.19-.48,1.56-.07.85,1-1.64,5-6.47,12.71C251.2,428.47,245.37,437.74,243.66,443.82Z"/><path class="cls-4" d="M274.68,422.15l-.49-.11c.19-.93,4.83-22.84,8-27.68a1,1,0,0,0,.16-1c-.82-1.66-7.68-2.13-14.31-2.58-6-.4-12.29-.83-15.81-2.12l.17-.47c3.46,1.27,9.67,1.69,15.68,2.1,7.39.5,13.77.93,14.72,2.85a1.41,1.41,0,0,1-.19,1.48C279.49,399.4,274.72,421.92,274.68,422.15Z"/><path class="cls-3" d="M354.17,386.85s24.57-15,50,5.13,66.77,23.21,77.57,29.55-20.52,32-50.74,28.52S356,414.17,354.17,386.85Z"/><path class="cls-4" d="M461.81,430.51a187.65,187.65,0,0,1-26.59-2.3c-29.48-4.32-53.83-23.75-66.9-34.19-4.67-3.72-8-6.41-9.5-6.69l.09-.49c1.59.3,4.82,2.88,9.72,6.79,13,10.41,37.31,29.78,66.67,34.08,39.31,5.76,44.27-1.24,44.31-1.31l.43.27C479.91,426.88,477.46,430.51,461.81,430.51Z"/><path class="cls-4" d="M460.32,443.72c-.3-.33-2.27-1.68-4.54-3.24-9.33-6.41-14.3-10.13-13.81-11.43.18-.51.92-.48,1.47-.42,6.49.71,22.22-10.94,22.37-11.06l.3.4c-.65.49-16.06,11.92-22.73,11.16-.68-.08-.92,0-.95.09-.44,1.18,9.07,7.71,13.63,10.85a55,55,0,0,1,4.63,3.32Z"/><path class="cls-4" d="M437.72,447c-2.79-4.55-8.94-10-14.36-14.72-6.15-5.41-9.6-8.54-9.07-10.12.16-.49.68-.76,1.57-.83,7.09-.52,19.09-11.88,19.21-12l.35.36c-.5.48-12.26,11.61-19.52,12.14-.66.05-1,.22-1.14.49-.45,1.34,4.11,5.34,8.93,9.58,5.45,4.79,11.63,10.22,14.45,14.84Z"/><path class="cls-4" d="M407.44,443.82c-1.72-6.08-7.55-15.35-12.23-22.79-4.84-7.69-7.32-11.75-6.47-12.71.36-.41,1.06-.15,1.55.07,6.67,3.1,27.06-5.37,27.27-5.45l.19.46c-.84.35-20.8,8.63-27.67,5.45-.79-.37-.95-.22-1-.2-.65.73,3,6.52,6.51,12.11,4.7,7.48,10.56,16.78,12.29,22.92Z"/><path class="cls-4" d="M376.42,422.15c-.05-.23-4.81-22.75-7.95-27.52a1.44,1.44,0,0,1-.2-1.48c1-1.92,7.34-2.35,14.73-2.85,6-.41,12.22-.83,15.68-2.1l.17.47c-3.53,1.29-9.78,1.72-15.82,2.12-6.63.45-13.48.92-14.31,2.58a1,1,0,0,0,.17,1c3.19,4.84,7.82,26.75,8,27.68Z"/><path class="cls-7" d="M337.58,201.84s28.23,5.59,45.2-22,54.7-44.77,62.67-54.45-30.27-22.94-57.46-9.32S329.92,175.56,337.58,201.84Z"/><path class="cls-4" d="M342,200.22l-.25-.43c1.28-.77,3.52-4.45,6.61-9.55,8.69-14.3,24.86-40.92,51.06-55.12,35.41-19.19,42.34-14.2,42.61-14l-.31.4s-1.75-1.27-7.79-.17c-5.57,1-16,4.3-34.27,14.19-26.08,14.13-42.2,40.68-50.87,54.94C345.58,195.85,343.43,199.39,342,200.22Z"/><path class="cls-4" d="M431.84,134.58c-.18-.06-19-5.61-24.81-2.68-.49.24-1.18.52-1.53.11-.9-1.06,2.48-6.26,9-15.49,1.6-2.25,3-4.19,3.14-4.61l.47.19a53.72,53.72,0,0,1-3.21,4.71c-3.2,4.52-9.88,13.91-9.06,14.87.05.06.3.08.92-.23,6-3,24.41,2.42,25.19,2.65Z"/><path class="cls-4" d="M405.82,152.9c-.16-.07-15.33-6.61-22.17-4.66-.86.25-1.44.17-1.77-.24-1-1.29,1.13-5.42,5.05-12.61,3.45-6.35,7.36-13.53,8.41-18.77l.49.1c-1.06,5.31-5,12.53-8.47,18.91-3.07,5.64-6,11-5.09,12.06.19.23.6.26,1.24.07,7-2,21.88,4.41,22.51,4.68Z"/><path class="cls-4" d="M363,169.86a.62.62,0,0,1-.29-.07c-1.13-.62-.19-5.28,1.7-14.16C366.2,147,368.48,136.32,368,130l.5,0c.49,6.36-1.81,17.11-3.65,25.74-1.38,6.47-2.81,13.15-2,13.62,0,0,.22.09.84-.52,5.35-5.35,26.94-4.45,27.85-4.41l0,.5c-.22,0-22.28-.93-27.48,4.26A1.91,1.91,0,0,1,363,169.86Z"/><path class="cls-4" d="M350.7,191.61a3,3,0,0,1-2-.54,1.43,1.43,0,0,1-.32-1.46c1.31-5.55-2-28.34-2-28.57l.5-.07c.14.94,3.33,23.11,2,28.76a.94.94,0,0,0,.18,1c1.34,1.28,7.94-.65,14.32-2.51,5.82-1.69,11.83-3.45,15.59-3.45v.5c-3.69,0-9.67,1.75-15.45,3.43C358.18,190.23,353.42,191.61,350.7,191.61Z"/><path class="cls-7" d="M121.89,315.94s-28.76.44-40.51-29.77-45.79-53.85-51.89-64.79,33.88-17.15,58.19,1.13S134.14,291.45,121.89,315.94Z"/><path class="cls-4" d="M117.8,313.54c-1.22-1.06-2.7-4.93-4.94-10.77-6-15.59-17.07-44.59-40.2-63.18-16.17-13-25.87-18.1-31.17-20.1-5.74-2.16-7.67-1.24-7.69-1.23l-.24-.44c.32-.17,8-3.84,39.42,21.39,23.23,18.66,34.36,47.75,40.35,63.38,2.13,5.57,3.67,9.59,4.8,10.58Z"/><path class="cls-4" d="M67.22,235.19a2.12,2.12,0,0,1-1.11-.51c-5.22-3.92-24.7-1.83-24.89-1.81l-.06-.5c.81-.09,19.87-2.13,25.25,1.91.56.42.81.44.87.39,1-.79-3.91-11.23-6.25-16.25a54.14,54.14,0,0,1-2.31-5.21l.49-.1c.09.44,1.1,2.6,2.27,5.1,4.8,10.25,7.19,16,6.11,16.85A.58.58,0,0,1,67.22,235.19Z"/><path class="cls-4" d="M63.54,255.56l-.11-.49c.66-.15,16.44-3.79,23-.57.6.3,1,.35,1.23.16,1.07-.93-.83-6.69-2.84-12.79-2.27-6.89-4.85-14.7-4.94-20.11h.5c.09,5.34,2.65,13.11,4.91,20C87.82,249.49,89.21,254,88,255c-.39.35-1,.32-1.78-.08C79.81,251.81,63.7,255.52,63.54,255.56Z"/><path class="cls-4" d="M102.78,279.94c-.44,0-.84-.49-1.11-.88-4.18-6.05-26-9.09-26.27-9.12l.07-.5c.91.13,22.31,3.11,26.61,9.33.49.72.71.67.73.66.93-.3.72-7.13.52-13.74-.26-8.83-.59-19.81,1-26l.48.12c-1.6,6.11-1.27,17-1,25.84.28,9.08.36,13.84-.86,14.24Z"/><path class="cls-4" d="M111.81,303.63c-2.49,0-7.44-2.48-13-5.27-5.38-2.7-11-5.49-14.58-6.15l.09-.49c3.7.67,9.3,3.48,14.72,6.19,5.94,3,12.08,6,13.64,5A1,1,0,0,0,113,302c-.29-5.8,6.82-27,7.12-27.94l.48.16c-.08.22-7.39,22-7.1,27.75a1.42,1.42,0,0,1-.58,1.38A2,2,0,0,1,111.81,303.63Z"/><path class="cls-3" d="M361.58,360.84s28.23,5.59,45.2-22,54.7-44.77,62.67-54.45-30.27-22.94-57.46-9.32S353.92,334.56,361.58,360.84Z"/><path class="cls-4" d="M366,359.22l-.25-.43c1.28-.77,3.52-4.45,6.61-9.55,8.69-14.3,24.86-40.92,51.06-55.12,35.41-19.2,42.33-14.2,42.61-14l-.31.4s-1.75-1.27-7.79-.17c-5.57,1-16,4.3-34.27,14.19-26.08,14.13-42.2,40.68-50.87,54.94C369.58,354.85,367.43,358.39,366,359.22Z"/><path class="cls-4" d="M455.84,293.58c-.18-.06-19-5.61-24.81-2.69-.49.25-1.18.53-1.53.12-.9-1.06,2.48-6.26,9-15.49,1.6-2.25,3-4.19,3.14-4.61l.47.19a54.94,54.94,0,0,1-3.2,4.71c-3.21,4.52-9.89,13.91-9.07,14.87.05.05.3.08.92-.23,6-3,24.41,2.42,25.19,2.65Z"/><path class="cls-4" d="M429.82,311.9c-.16-.07-15.33-6.6-22.17-4.65-.86.24-1.44.16-1.77-.24-1-1.3,1.13-5.43,5.05-12.62,3.45-6.35,7.36-13.53,8.41-18.77l.49.1c-1.06,5.31-5,12.53-8.47,18.91-3.07,5.64-6,11-5.09,12.06.19.23.61.26,1.24.07,7-2,21.88,4.41,22.51,4.68Z"/><path class="cls-4" d="M387,328.86a.62.62,0,0,1-.29-.07c-1.13-.62-.19-5.28,1.7-14.16C390.2,306,392.48,295.32,392,289l.5,0c.49,6.36-1.81,17.11-3.65,25.74-1.38,6.47-2.81,13.15-2,13.62,0,0,.23.09.84-.52,5.35-5.35,26.94-4.45,27.85-4.41l0,.5c-.22,0-22.28-.93-27.48,4.26A1.91,1.91,0,0,1,387,328.86Z"/><path class="cls-4" d="M374.7,350.61a3,3,0,0,1-2-.54,1.43,1.43,0,0,1-.32-1.46c1.31-5.55-2-28.34-2-28.57l.5-.07c.14.94,3.33,23.11,2,28.76a.94.94,0,0,0,.18,1c1.35,1.28,7.94-.65,14.32-2.51,5.82-1.69,11.83-3.45,15.59-3.45v.5c-3.69,0-9.67,1.75-15.45,3.43C382.18,349.23,377.42,350.61,374.7,350.61Z"/><path class="cls-7" d="M164.85,251.83s-4-47.46,25.67-52.35c25.19-4.16,45.26,7.09,55.14,32.51S171.4,259.51,164.85,251.83Z"/><path class="cls-8" d="M103.16,173.56s9.17,18,17.59,16.63,11.92-12.93,25.53-8.15,26.06,33.37,39.16,37.43-8.53,34.13-8.53,34.13S71.6,260.23,67.32,252.5,95.76,205.82,99,203.4c7.37-5.57-3.18-15.16-3.18-15.16Z"/><path class="cls-8" d="M103.14,161.25s11.33,22.85-.84,27.43c-8.37,3.16-17.64-9.82-17.72-17.34S96.28,157.69,103.14,161.25Z"/><ellipse class="cls-9" cx="93.42" cy="176.89" rx="0.79" ry="1.02" transform="translate(-56.44 44.38) rotate(-20.68)"/><ellipse class="cls-9" cx="101.17" cy="173.97" rx="0.79" ry="1.02" transform="translate(-54.91 46.92) rotate(-20.68)"/><path class="cls-8" d="M106.42,173.07s-.14-4.57,2.32-3.48,2.28,6.71.55,7.34S106.23,175,106.42,173.07Z"/><path class="cls-10" d="M99.14,170.2a2.57,2.57,0,0,1,3.38.45C103.59,171.62,97.38,171.47,99.14,170.2Z"/><path class="cls-10" d="M92.53,172.52a2.57,2.57,0,0,0-2.63,2.17C89.51,176.08,94.7,172.65,92.53,172.52Z"/><path class="cls-8" d="M88.94,179.85s-2.9-3.54-4-1.1,2.68,6.56,4.39,5.89S90.37,181.2,88.94,179.85Z"/><path class="cls-10" d="M85.15,165.32s4.31,9,2,13.66C87.12,179,73.67,175.34,85.15,165.32Z"/><path class="cls-11" d="M99.34,180.89a4.11,4.11,0,0,1-2.72-1.42l.4-.3a3.71,3.71,0,0,0,2.24,1.22,45.47,45.47,0,0,0-2.08-5.19l.46-.21c1.54,3.45,2.25,5.37,2.11,5.71l-.17.16A.78.78,0,0,1,99.34,180.89Z"/><path class="cls-11" d="M99.31,183.83a7.32,7.32,0,0,1-3.69-1.42l.29-.4s2.64,1.93,4.38,1.11c1-.45,1.5-1.69,1.6-3.68l.5,0c-.11,2.19-.74,3.57-1.89,4.11A2.75,2.75,0,0,1,99.31,183.83Z"/><path class="cls-11" d="M88.84,183.11c-1.15-2.81-2.45-2.69-2.46-2.7l-.08-.49c.07,0,1.69-.22,3,3Z"/><path class="cls-11" d="M108.31,175.75c-1.14-3.29.21-4.2.27-4.24l.27.42s-1.07.78-.07,3.65Z"/><path class="cls-8" d="M86.34,198.35a11,11,0,0,0-3.58-7c-3.34-2.89-6.94-7.21-4.88-6.23s4.66,2.61,4.66,2.61-3.74-3.61-3.15-4.11S85,185.51,85,185.51s-4.49-2.56-2.69-3.42,13.91,9.61,11.9,13.36C91.79,200,91.91,200.26,86.34,198.35Z"/><path class="cls-7" d="M169.92,249.72s3.89-26.82,11.38-30.25S262,239.08,271.36,240s15.48,9.4,14.8,11-12.13,2.21-16.9,3.15S169.3,267.5,169.92,249.72Z"/><path class="cls-7" d="M176.84,220.5s-3.7-11.3,2.54-16.67c22-19,82,21.86,92.4,31.37,6.93,6.36,21.63,13.12,20.65,14.6s-15-6.19-19.89-6.15S173,237.86,176.84,220.5Z"/><path class="cls-11" d="M84.16,192.83s9.11-.69,10.46-.06,2.88,58.16-3.15,61.43-21.33,3.91-26.6.26S80.18,190.6,84.16,192.83Z"/><path class="cls-11" d="M100.91,201.18s17.69,12.87,19.84-11c0,0,13.09-11.14,23.05-11.21,16-.12,20.48,23.35,35.58,24.85,6.16.61-2,52.51-2,52.51s-93.23,2-98,.66-1.83-35,1.37-39.65S98.14,200.27,100.91,201.18Z"/><path class="cls-11" d="M95.77,188.24s5.42,6.94,9.51,6.31,4.48-11,4.48-11l-1.83-2.35S107.93,193.23,95.77,188.24Z"/><path class="cls-10" d="M82,162.49s1.72-4.62,8.3-7.38,15.57-7,16.07-5-1.57,6.54-1.57,6.54,5-3.66,4.58-.92-2,9-11.8,11.88S77.64,170.33,82,162.49Z"/><path class="cls-10" d="M100.34,160.08s3.53,12,6.48,11.2c0,0,1.45-6.08-.42-9.42S100.34,160.08,100.34,160.08Z"/><path class="cls-12" d="M90.82,250l-.26-.43c5.29-3.29,4.86-43.84,4.85-44.25h.5C95.93,207,96.35,246.57,90.82,250Z"/><path class="cls-12" d="M112,206.87c-6.51,0-13-3.21-13.12-3.24l.22-.45c.07,0,7,3.42,13.59,3.18,6.2-.23,9.15-10.89,9.76-15l.5.07a35,35,0,0,1-2.67,8.74c-2,4.3-4.59,6.54-7.57,6.66Z"/><path class="cls-4" d="M114.75,216.4s.47-13.11,14.85-20.49c8.38-4.31,10.07,4.54,10.57,5.84s-21.64,17.91-24.83,17.57S83,221.5,82.4,221.17s-2.68-5.2.45-7.55S108.87,208.52,114.75,216.4Z"/><path class="cls-7" d="M90.4,252.77S77.85,218.88,81,217.64c4.31-1.69,29.19-1.58,33.72-1.24,0,0,18.2-20.34,23.91-19.07s17.92,38.86,15.58,39-17,11.86-28.75,17C125.49,253.35,93.62,254.2,90.4,252.77Z"/><path class="cls-8" d="M145.25,238.45s-6.6-3.65-11-3.87-10,.43-7.84,1.14,5.18,1.33,5.18,1.33-5.2,0-5.12.8,5.42,2.51,5.42,2.51-5-1.24-4.31.62,10,2.36,13.63,6.1S150.6,240.91,145.25,238.45Z"/><path class="cls-12" d="M141.71,201.71c-6.9-7.77-1.82-18.38-1.77-18.48l.45.22c0,.1-5,10.41,1.69,17.93Z"/><path class="cls-11" d="M136.67,230.61s-4,12.87,0,17.31,37.52-6.81,41.07-16.72-1.82-18.68-7.82-18.63S154.41,225.44,136.67,230.61Z"/><path class="cls-12" d="M147.23,250.71a24.68,24.68,0,0,1-5.76-.67l.12-.49c11,2.67,22.31-3.15,29.2-9.49,4.84-4.44,7.67-9.21,7.22-12.15-1.14-7.36-11-26.76-11.07-27l.44-.23c.41.8,10,19.68,11.12,27.11.48,3.1-2.41,8-7.37,12.6C165.34,245.75,156.48,250.71,147.23,250.71Z"/><path class="cls-12" d="M151.75,223.6l-.36-.35c.93-1,9.74-8,13.2-9.31l.18.47C161.37,215.7,152.67,222.65,151.75,223.6Z"/><path class="cls-4" d="M86.39,215.44,86.3,215c.75-.14,18.59-3.38,25.77,0l-.21.46C104.82,212.09,86.57,215.41,86.39,215.44Z"/><path class="cls-4" d="M121.41,217.58s17.86-10.47,18.77-12.22c.32-.62,3.62,9.84,3.62,9.84s-16.86,9.38-17.88,9.52S121.91,219.54,121.41,217.58Z"/><path class="cls-12" d="M143.57,248c-3.36-6.68-2.33-18.61-2.29-19.12l.5.05c0,.12-1.05,12.29,2.24,18.84Z"/><path class="cls-12" d="M95.12,200.71c-3.57-1.38-13.85-1-14-1l0-.5c.43,0,10.48-.4,14.15,1Z"/><path class="cls-11" d="M82.76,187.82l-.44-.24a6.56,6.56,0,0,1,2.6-2.29l.24.44A6.09,6.09,0,0,0,82.76,187.82Z"/><path class="cls-13" d="M231.08,209.74c-10.18-4.86-27.69-7.4-40.08-2.53l-.18-.46c12.52-4.92,30.2-2.37,40.48,2.54Z"/><path class="cls-14" d="M269.05,232.9s-2.59,12.32.4,13.28,17.59-3.14,21.6-1.1,6.86,5.55,6.43.54-5.63-9.63-10.78-11.07S269.05,232.9,269.05,232.9Z"/><path class="cls-14" d="M269.08,245.31s-1.08,7.33,1.9,8.29,13.86-2,17.87,0,11.16,5.73,10.74.72-5.63-9.63-10.78-11.07S269.08,245.31,269.08,245.31Z"/><path class="cls-7" d="M185.91,208s-12.25,34.37-11.58,48.37c.26,5.42,21.85,3.56,29,3.21S188.55,213.76,185.91,208Z"/><path class="cls-13" d="M179.51,233.09c-1.5-1.24-.23-6.81.89-11.72.45-2,.88-3.88,1-5,.43-3.9,4.15-8.34,4.31-8.53l.38.33s-3.78,4.5-4.19,8.25c-.13,1.2-.55,3-1,5.1-1,4.3-2.32,10.18-1.06,11.22Z"/><path class="cls-15" d="M84.78,167.49l-.24-.43c.25-.15,6.25-3.54,8.95-3.54,5.78,0,9.09-2,9.84-6l.49.09c-.8,4.28-4.28,6.45-10.33,6.45C90.92,164,84.84,167.46,84.78,167.49Z"/><path class="cls-15" d="M83.21,165.73l-.43-.25c.13-.23,3.35-5.6,7.73-6.78a11.1,11.1,0,0,1,4.27-.22c1.73.17,2.78.28,3.91-1.75l.44.25c-1.29,2.31-2.66,2.17-4.4,2a10.28,10.28,0,0,0-4.09.2C86.46,160.31,83.24,165.68,83.21,165.73Z"/><path class="cls-15" d="M84.92,176.93c-.07-.22-1.69-5.45-.82-7.26l.45.21c-.78,1.64.83,6.85.85,6.9Z"/><path class="cls-15" d="M105.91,169.15a6.82,6.82,0,0,0-1.83-3.85l.32-.39a7.24,7.24,0,0,1,2,4.15Z"/><path class="cls-4" d="M278,245a38.45,38.45,0,0,0-2.32-4.38l.44-.25a43,43,0,0,1,2.36,4.5Z"/><path class="cls-4" d="M282.4,245.23l-.5-.07c.23-1.62-1.67-4.74-1.69-4.77l.43-.26C280.72,240.26,282.66,243.43,282.4,245.23Z"/><path class="cls-4" d="M279.2,254a40.15,40.15,0,0,0-2.32-4.39l.43-.25a45,45,0,0,1,2.37,4.5Z"/><path class="cls-4" d="M283.63,254.23l-.49-.07c.23-1.62-1.68-4.74-1.7-4.77l.43-.26C282,249.26,283.89,252.43,283.63,254.23Z"/><path class="cls-13" d="M269.07,245.56c-.45,0-45.42-1-65.81-4.22-17.56-2.73-21.61-6.46-21.77-6.62l.34-.36s4.17,3.79,21.51,6.49c20.36,3.17,65.29,4.2,65.74,4.21Z"/><path class="cls-16" d="M114.16,216.49c-9.42-3.52-29.27-1.18-29.47-1.15l-.06-.5c.2,0,20.17-2.38,29.7,1.18Z"/><path class="cls-16" d="M116.9,212.67l-.47-.17c3.24-8.74,14.75-15.07,14.86-15.13l.24.44C131.42,197.87,120.08,204.12,116.9,212.67Z"/><path class="cls-13" d="M125.48,253.6c-.29,0-.69-.3-6.89-17.67-3.09-8.65-6.13-17.42-6.16-17.51l.47-.16c4.72,13.58,12,34.09,12.73,34.89l-.14.13v.32Z"/><path class="cls-13" d="M130.68,251.92c-1.49-4.2-13.14-36.17-13.25-36.5l.47-.17c.11.32,11.76,32.3,13.25,36.5Z"/><path class="cls-17" d="M58.94,317.5s171.6,1.68,178.81,0,24.28-2.65,26.34.77,9.22,59-1.09,62.37-207.15,1.12-211.27,1.12-1.55-57,.51-59.79S52.24,318.62,58.94,317.5Z"/><path class="cls-18" d="M103.66,333s-.41,26.8,2.46,30.75,123.46,3.52,127.56,2.64,1.64-34.27,1.64-34.27S103.25,328.64,103.66,333Z"/><path class="cls-18" d="M66.16,317.37l-1,65.47s8.5.51,10,.51,1-67,1-67Z"/><path class="cls-18" d="M84.66,317.34l-1,63.5s8.5.5,10,.5,1-65,1-65Z"/><path class="cls-18" d="M58.94,255.45s171.42.07,178.81,0c12.41-.11,25.35,1.57,27.41,4.89s8.15,53.11-2.16,56.36-207.15,1.08-211.27,1.08-1.55-55.28.51-58S52.24,256.54,58.94,255.45Z"/><path class="cls-4" d="M50.66,266.84s182,.5,184,4,4.5,35.5-4.5,38.5-177,4-181.5,1S44.16,267.84,50.66,266.84Z"/><path class="cls-16" d="M172.8,278.11c-10.38,0-20.38-.36-28.73-.65-7.11-.26-12.72-.46-16.4-.37-20.27.49-76.44,1-77,1v-.5c.57,0,56.73-.51,77-1,3.69-.09,9.31.11,16.43.37,10.29.37,23.11.83,36,.59,27.27-.5,54-1,54-1v.5s-26.75.46-54,1C177.69,278.09,175.23,278.11,172.8,278.11Z"/><path class="cls-16" d="M116.34,288.43c-24.94,0-67.61-.83-68.18-.84v-.5c.76,0,76.58,1.49,85,.5,4.08-.48,25.66-1.28,48.51-2.14,24.28-.9,49.38-1.84,52-2.36l.1.49c-2.63.53-27.75,1.47-52.05,2.37-22.84.85-44.41,1.66-48.47,2.14C131.08,288.33,124.71,288.43,116.34,288.43Z"/><path class="cls-16" d="M97.13,296c-23.67,0-49.09-.44-49.47-.44v-.5c.57,0,57.75,1,80.48,0,19.66-.86,105-4,106.59-3.49l-.16.48c-1.79-.46-80.71,2.39-106.41,3.51C120.55,295.92,109.06,296,97.13,296Z"/><path class="cls-16" d="M96.9,304.41c-23.05,0-45.84-.32-46.24-.32v-.5c.7,0,70.7,1,89.47-.5,7.13-.56,21.15-.78,36-1,24.91-.38,53.16-.81,58.43-3l.19.46c-5.36,2.21-33.65,2.64-58.62,3-14.83.22-28.85.44-36,1C132.07,304.23,114.41,304.41,96.9,304.41Z"/><path class="cls-7" d="M194.16,301.84s-18-23.5-16-24.5,34-4,33.5-1S196.16,301.84,194.16,301.84Z"/><path class="cls-5" d="M167.16,318.84s-18-23.5-16-24.5,34-4,33.5-1S169.16,318.84,167.16,318.84Z"/><path class="cls-19" d="M99.66,266.34s6,61,6,64.5,7-16,7-16,6,16.08,7.88,15.33,5.12-61.33,2.12-63.33S99.66,266.34,99.66,266.34Z"/><path class="cls-5" d="M442.49,180.31S465.76,353.64,468.3,361s3.69,36.21-13.69,36.75c-4.05.13-38,14.29-42.83-12-2.06-11.22-30.44-201.69-30.94-206s51.2-10.39,54.22-8.54S440.57,173.39,442.49,180.31Z"/><path class="cls-20" d="M405.45,349.2s54-10.68,58-9,5.94,25.95,7,35.59-5.1,22.08-21.36,24.37-36.3,5.06-38.84-17.6C408.36,365.65,405.45,349.2,405.45,349.2Z"/><path class="cls-4" d="M390.51,178.64S419.19,384.16,423.7,387.7s33.78-1.54,34.3-5.78c1.06-8.63-27.32-206.12-30.5-209.6S388.15,171.86,390.51,178.64Z"/><path class="cls-16" d="M431.89,389.88c-4.92-6.3-36.12-206.39-37.45-214.9l.49-.08c.33,2.08,32.51,208.47,37.35,214.67Z"/><path class="cls-16" d="M444.28,384.23c-.25-1.91-24.81-190.63-29-212.34l.49-.09c4.18,21.72,28.75,210.46,29,212.36Z"/><path class="cls-16" d="M452.48,387.17l-.5,0c.51-11.15-24.48-212.77-24.73-214.8l.5-.06C428,174.32,453,376,452.48,387.17Z"/><path class="cls-16" d="M440.88,386.73c-.37-2-36.53-196.42-35.67-215.35l.5,0c-.86,18.87,35.29,213.28,35.66,215.24Z"/><path class="cls-6" d="M387.43,186.81s1.07,174.88,2.64,182.54-.93,36.38-18.24,34.71c-4-.39-39.53,9.34-41-17.3-.61-11.39-4.57-203.93-4.51-208.29s52.1-3.8,54.87-1.58S386.41,179.7,387.43,186.81Z"/><path class="cls-21" d="M329.24,349.62s54.95-3.72,58.66-1.54,1.22,25.31,1.06,35-6.48,22.43-22.9,22.64-36.43.3-34.51-22.42A124.86,124.86,0,0,0,329.24,349.62Z"/><path class="cls-4" d="M336.09,178.55s2.34,207.5,6.37,211.58,33.7,2.76,34.75-1.37c2.15-8.43-.92-207.93-3.63-211.78S334.61,171.53,336.09,178.55Z"/><path class="cls-16" d="M350.3,393.33c-4.08-6.87-9.61-209.3-9.85-217.91l.5,0c.06,2.11,5.76,210.92,9.78,217.68Z"/><path class="cls-16" d="M363.31,389.3c0-1.92-.4-192.23-1.78-214.29l.5,0c1.38,22.08,1.77,212.41,1.78,214.33Z"/><path class="cls-16" d="M371.07,393.26l-.49-.08c1.92-11,2.74-214.15,2.75-216.2h.5C373.82,179,373,382.23,371.07,393.26Z"/><path class="cls-16" d="M359.61,391.35c-.11-2-11.28-199.47-8-218.14l.49.09c-3.25,18.61,7.92,216,8,218Z"/><path class="cls-18" d="M327.87,182.4s1.52,181.53,3.43,189.13,3.28,25.64-.3,27.87-62.36,10.76-66.11-.08-5.16-219.09-5.24-223.45,60.35-2.61,63.35-.48S326.55,175.34,327.87,182.4Z"/><path class="cls-19" d="M259.52,189.34h65.69s.71,8.79,0,8.79-62.51.74-64.63.25S259.52,189.34,259.52,189.34Z"/><path class="cls-19" d="M259.52,205h65.69s.71,8.79,0,8.79-62.51.73-64.63.25S259.52,205,259.52,205Z"/><path class="cls-19" d="M278.61,231.08h33.22s1,121.26.67,121.26-32.29,3.77-33.36-2.64S278.61,231.08,278.61,231.08Z"/><path class="cls-8" d="M241.94,116.11s4.95,9.78,17.34,18,26.88-9,26.88-9S247.22,112.34,241.94,116.11Z"/><path class="cls-8" d="M327.11,67.48S324,79.13,325.25,83.09s15.81,5,20.59,10.86-8.73,58.68-8.81,62.35-51.59-3-57.95-6.07S290,93.76,296.16,89s12.16-.32,15.14-5.9A19.12,19.12,0,0,0,313,71.4Z"/><path class="cls-8" d="M334.91,55.34s-5.65,24.87-18,20.74c-8.48-2.84-7.47-18.76-2.78-24.64S331.84,48.24,334.91,55.34Z"/><ellipse class="cls-9" cx="317.5" cy="61.33" rx="1.02" ry="0.79" transform="translate(158.7 343.02) rotate(-71.52)"/><ellipse class="cls-9" cx="325.34" cy="63.96" rx="1.02" ry="0.79" transform="translate(161.57 352.26) rotate(-71.52)"/><path class="cls-8" d="M330,66.58s2.77-3.64,4-1.24-2.46,6.65-4.2,6S328.6,68,330,66.58Z"/><path class="cls-9" d="M326.15,59.76a2.56,2.56,0,0,1,2.34,2.47C328.71,63.66,324,59.62,326.15,59.76Z"/><path class="cls-9" d="M319.56,57.38a2.56,2.56,0,0,0-3.4,0C315,58.23,321.16,58.85,319.56,57.38Z"/><path class="cls-8" d="M312.15,60.79s0-4.57-2.43-3.39-2.07,6.78-.31,7.34S312.41,62.75,312.15,60.79Z"/><path class="cls-22" d="M318.38,47.13S316,56.84,311.29,59C311.29,59,303.15,47.66,318.38,47.13Z"/><path class="cls-22" d="M332.89,52s-4,9.17-1.46,13.72C331.43,65.7,344.74,61.55,332.89,52Z"/><path class="cls-22" d="M335.92,54s3.3-6.84-1.49-10.77-15.32,1.67-15.91-2.64c-.37-2.73-3.51,4.3,1,5.88,0,0-4.53-4-4.73-3.09C312.93,51.78,330.86,60.5,335.92,54Z"/><path class="cls-18" d="M323.39,51.26l-.6-.21c-3.58-1.3-4.82-2.73-5.23-3.7a2,2,0,0,1-.11-1.56l.31.14-.15-.07.15.06a1.73,1.73,0,0,0,.12,1.31c.39.91,1.58,2.25,5,3.5a25.83,25.83,0,0,0,6.54,1.4c2.05.21,3.29.33,3.53,2.06l-.34.05c-.2-1.46-1.15-1.56-3.22-1.78A26.2,26.2,0,0,1,323.39,51.26Z"/><path class="cls-18" d="M334.52,52.58s0-2.84-4.57-5a6.65,6.65,0,0,0-4.61-.32,3,3,0,0,1-2.33-.07c-.64-.42-1.07-1.36-1.4-3l.33-.06c.31,1.57.71,2.47,1.25,2.83s1.21.2,2.08,0a6.91,6.91,0,0,1,4.82.34c4.76,2.22,4.77,5.15,4.77,5.27Z"/><path class="cls-11" d="M319.76,68.3a3.76,3.76,0,0,1-1.41-3l.5,0a3.73,3.73,0,0,0,1,2.36,48.14,48.14,0,0,0,1.67-5.34l.48.13c-1,3.65-1.64,5.58-2,5.76Z"/><path class="cls-11" d="M319.35,71.05a2.38,2.38,0,0,1-.59-.07c-2.15-.53-3-3.85-3.05-4l.49-.12S317,70,318.88,70.5c1,.25,2.24-.37,3.57-1.85l.37.34C321.59,70.36,320.42,71.05,319.35,71.05Z"/><path class="cls-11" d="M310.49,63.4l-.47-.14c.88-2.91-.2-3.64-.21-3.65l.25-.43C310.12,59.22,311.51,60.08,310.49,63.4Z"/><path class="cls-11" d="M330.23,70l-.47-.17c1.19-3.27,2.81-3.12,2.88-3.11l-.05.5,0-.25,0,.25S331.27,67.14,330.23,70Z"/><path class="cls-14" d="M348.13,235.8s-5.14,14.48-2.56,20.08,8.92,8.4,12.42,7.83-4.42-8.64-5.16-13.92,2.33-14,2.33-14Z"/><path class="cls-14" d="M334.82,236.93s-5.14,14.48-2.56,20.07,8.93,8.41,12.43,7.84-4.43-8.65-5.17-13.92,2.33-14,2.33-14Z"/><path class="cls-5" d="M302,170.54s7-19.23,26.32-14.68,25.4,82.34,15.51,89.14c-3.88,2.67-17.37.65-17.62-2.86C323.5,204.35,300.63,186.45,302,170.54Z"/><path class="cls-5" d="M319.67,156.74s31.44-4.49,45.49,9.47,4.19,74.1-7.83,79.4c-4.54,2-12.48-1.14-12.48-1.14C341.88,240.44,310.22,169.62,319.67,156.74Z"/><path class="cls-23" d="M345.08,244.56l-.47-.18c2.25-6.17,8.39-47.14,3.52-70-2.56-12-6.42-16.2-9.21-17.61a5.7,5.7,0,0,0-4.64-.41l-.21-.45a6.08,6.08,0,0,1,5.06.4c2.89,1.46,6.89,5.75,9.49,18C353.51,197.22,347.34,238.35,345.08,244.56Z"/><path class="cls-5" d="M316,174.52s-32.72,1.46-38.17-2.94c-9.37-7.55,1.29-21.35,1.29-21.35l49.19,5.63S327.69,174.34,316,174.52Z"/><path class="cls-19" d="M308,85.28s.11,8.86,10.32,9.79c8.92.81,8.11-10.28,14.3-7.8s10.61.82,14.25,10.34-1.72,61.05-4.68,60.76-33.46-4-44.31,3.15c-9,5.94-26,11-24.54,3.42s5-64,10.2-72.06C286.84,87.72,305.41,85.52,308,85.28Z"/><path class="cls-5" d="M232.41,108.05s57.17-7.49,59.39-1.87,2.46,17.85,0,18.75-56.74,4.58-58.61,1.81S232.41,108.05,232.41,108.05Z"/><path class="cls-11" d="M230.84,91.24l61-.08c1.74,5.86,2.3,16.6-.32,16.75-17.07,1-37.31,2-49.56,2-6.76,0-11.1-.35-11.12-1.17C230.72,105.34,230.84,91.24,230.84,91.24Z"/><path class="cls-18" d="M229.47,73.13s61.07-4.94,62.81.84,1.08,16.31-1.45,17-43.83.17-60,.55C227.47,91.59,229.47,73.13,229.47,73.13Z"/><path class="cls-8" d="M225.14,110.75s0-5.42.44-6.66c1.6-4.11,4.88-8.16,4.61-5.9s-1,5.25-1,5.25,2.24-4.69,2.9-4.29,0,6,0,6,1-5.07,2.39-3.64-2.1,5-2.37,12.13C231.9,118.81,226.21,117.26,225.14,110.75Z"/><path class="cls-23" d="M304,175.93a2.83,2.83,0,0,1-1.67-.38,1,1,0,0,1-.42-.79c-.18-2.85,10.64-6.24,11.87-6.62l.15.48c-3.25,1-11.66,4-11.52,6.11a.54.54,0,0,0,.22.42c1,.72,4.47-.07,7.87-.82a39.34,39.34,0,0,1,7.36-1.22h.09v.5h-.08a38.64,38.64,0,0,0-7.25,1.21A36.81,36.81,0,0,1,304,175.93Z"/><path class="cls-23" d="M328.94,243.84l-.49-.07c.55-4.22,1-16.68-6.33-41.07-4.53-15-10.18-27.79-13.74-31-.65-.6-1.21-.85-1.64-.75-6.1,1.37-22.56-2.14-23.26-2.29l.11-.49c.17,0,17.05,3.64,23,2.29a2.46,2.46,0,0,1,2.08.87c3.62,3.3,9.33,16.16,13.89,31.26C325.06,210.71,330.61,231.06,328.94,243.84Z"/><path class="cls-8" d="M337.8,102.25s10.61,8.57,13.7,16.69-16.39,28.8-24.73,29.82-53.22-23.29-53.53-25.37.06-8.94,2.85-8.64c4.07.45,33.57,10.72,44.07,12.27C325.57,127.82,331.11,100.29,337.8,102.25Z"/><path class="cls-19" d="M321.72,117.27s23.78,5,28.47,11.13c2.34,3,6.31-10.54,6-21.57s-20.3-20.55-23.55-19.56S321.72,117.27,321.72,117.27Z"/><path class="cls-24" d="M328,113l-.5-.06c.07-.49,1.63-12,4.94-15.54s9.45-4.75,9.71-4.8l.09.49c-.06,0-6.23,1.28-9.43,4.65S328,112.92,328,113Z"/><path class="cls-24" d="M278,162.58l-.47-.17c.12-.35,3.29-8.38,23.58-9.45a225.07,225.07,0,0,1,26.24.36c6.35.37,10.93.64,13.77-.11l.13.49c-2.92.76-7.54.49-13.92.12a224.45,224.45,0,0,0-26.2-.36C281.2,154.51,278,162.5,278,162.58Z"/><path class="cls-24" d="M319.22,100.74c-5.68,0-14.39-11.7-14.76-12.2l.4-.3c.09.12,8.93,12,14.36,12h.07c3.58-.07,7.59-5.36,10.25-8.87,1.75-2.32,2.56-3.34,3.12-3.23l-.09.49c-.34,0-1.56,1.62-2.64,3-2.71,3.58-6.81,9-10.63,9.07Z"/><path class="cls-24" d="M351.68,124.34c-.15-.1-15.27-10.25-25.47-8.17l-.1-.49c10.41-2.12,25.7,8.15,25.85,8.25Z"/><path class="cls-11" d="M313.24,73.4S316,77,319.3,77s6.39-3,6.39-3-.39,2.17-.41,3-4.36,4.31-9.12,4.3c-2,0-3.13-3.62-3-4.13A9.69,9.69,0,0,0,313.24,73.4Z"/><path class="cls-4" d="M227.81,77.35s54.67-2.12,56.78,0,2.1,9.08,0,9.85-56.13,1.1-56.78,1.18S226.56,77.4,227.81,77.35Z"/><path class="cls-4" d="M237.5,95.31s53.23-1.9,55.28,0,2.06,8.15,0,8.83-54.65,1-55.28,1.06S236.28,95.36,237.5,95.31Z"/><path class="cls-18" d="M240.9,127.76l-.62-17.85s-2.94-.57-3.6,0-.66,17.58,0,17.64S239.08,127.76,240.9,127.76Z"/><path class="cls-18" d="M248.33,127.76l-.63-17.85s-2.94-.57-3.6,0-.65,17.58,0,17.64S246.5,127.76,248.33,127.76Z"/><path class="cls-18" d="M280.8,125.75l-.4-17.84s-2.93-.61-3.6,0-.88,17.57-.22,17.63S279,125.73,280.8,125.75Z"/><path class="cls-18" d="M288.22,125.85,287.83,108s-2.94-.61-3.6,0-.88,17.58-.23,17.64S286.4,125.83,288.22,125.85Z"/><path class="cls-8" d="M290,118.71s-13.11-4.38-17.46-5.13-10-.81-7.91.16,5,2,5,2-5.16-.61-5.18.16,5.07,3.16,5.07,3.16-5.89-2.26-5.41-.33,11.59,6.48,15.46,9.07C283.83,130.65,295,121.8,290,118.71Z"/><path class="cls-4" d="M338.5,254a20.58,20.58,0,0,1-4.39-.6l.13-.49c1.43.37,5.39,1.08,6.56.06l.33.38A4.22,4.22,0,0,1,338.5,254Z"/><path class="cls-4" d="M339.45,256.6a10.69,10.69,0,0,1-3-.49l.15-.47s3.17,1,4.73,0l.27.42A4.06,4.06,0,0,1,339.45,256.6Z"/><path class="cls-4" d="M352.54,253a20.34,20.34,0,0,1-4.39-.6l.12-.48c1.43.36,5.4,1.08,6.57.05l.33.38A4.16,4.16,0,0,1,352.54,253Z"/><path class="cls-4" d="M353.48,255.59a10.78,10.78,0,0,1-3-.49l.16-.48s3.17,1,4.72,0l.27.42A4,4,0,0,1,353.48,255.59Z"/><path class="cls-23" d="M361.34,241.07c-.44,0-10.73-.45-14.15-2.54l.26-.43c3.31,2,13.8,2.46,13.91,2.47Z"/><path class="cls-23" d="M339.23,238.38c-4.94,0-11.56-.14-13.46-.18v-.5c7.24.16,18.26.3,19,0l.23.44A36.88,36.88,0,0,1,339.23,238.38Z"/><path class="cls-16" d="M227,80.75l0-.5c.15,0,14.59-.66,21.18-.66,4.7,0,20.68-.17,30.22-.27l7.12-.07v.5l-7.11.07c-9.55.1-25.53.27-30.23.27C241.58,80.09,227.15,80.75,227,80.75Z"/><path class="cls-16" d="M247.37,85.87c-8.19,0-19.56-.28-19.71-.28v-.5c.2,0,20.39.49,26.31.16s30.91-2.47,31.16-2.49l0,.49c-.25,0-25.24,2.17-31.17,2.5C252.52,85.84,250.12,85.87,247.37,85.87Z"/><path class="cls-16" d="M251.58,99.72c-6.87,0-14.81-.29-14.93-.3l0-.5c.18,0,18,.66,23.29,0s33.58-1,33.87-1v.5c-.28,0-28.54.34-33.8,1A83.32,83.32,0,0,1,251.58,99.72Z"/><path class="cls-16" d="M237.5,103.09v-.5c.28,0,27.7-.18,32-1s23.73-.51,24.55-.5v.5c-.2,0-20.19-.33-24.45.49S238.63,103.08,237.5,103.09Z"/><path class="cls-19" d="M272.66,79.34s.34,15.83.5,17.16,3.34-5.83,3.34-5.83l3.66,6.17L280.83,79S273.16,78.67,272.66,79.34Z"/><path class="cls-19" d="M251,248.27s-11.45-4.86-16.13,11.31-4.47,22.81,2.89,25.12,8.75-3.72,14.5-1.45,15.91,3.26,17.56-3.69S266.47,240.7,251,248.27Z"/><path class="cls-8" d="M258.86,258s-2.58,24.46,1.56,28.11,20.92-1.89,25.38,5.14,3.13,59.25,3.13,59.25H218.18s1.2-60.16,4.87-62.79,20.9,3.7,21.79-6.61c.43-4.94.9-18.91.9-18.91Z"/><path class="cls-11" d="M245.22,276.39s7.46,5.9,12.85-3.19c0,0-.12,5.5.06,6.38s-5.3,5.62-6.15,5.62c-2.26,0-6.94-5.37-6.94-5.37Z"/><path class="cls-25" d="M238.82,287.17s4.28,14.47,12,15.59,9.59-16.1,11.8-15.59,14.15-5.45,19.5,3,4.88,75,4.88,75H218.18s1.33-62.64,3.1-69.94S234.8,286.19,238.82,287.17Z"/><path class="cls-8" d="M261.74,255.58s1.13,25.48-11.85,24.76c-8.93-.5-12.17-16.11-9.21-23S256.9,249.55,261.74,255.58Z"/><ellipse class="cls-14" cx="246.05" cy="267.96" rx="1.02" ry="0.79" transform="translate(-34.96 498.99) rotate(-86.87)"/><ellipse class="cls-14" cx="254.78" cy="267.96" rx="1.02" ry="0.79" transform="translate(-26.71 507.7) rotate(-86.87)"/><path class="cls-8" d="M260,267.72s1.72-4.24,3.53-2.25-.62,7.07-2.45,6.94S259,269.44,260,267.72Z"/><path class="cls-19" d="M254.46,262.16a2.56,2.56,0,0,1,2.91,1.77C258,265.25,252.34,262.6,254.46,262.16Z"/><path class="cls-19" d="M247.24,262.44a2.57,2.57,0,0,0-3.28.92C243,264.48,249.16,263.43,247.24,262.44Z"/><path class="cls-8" d="M241.23,266.87s-1.22-4.41-3.24-2.64-.2,7.09,1.64,7.17S242,268.68,241.23,266.87Z"/><path class="cls-11" d="M251,272.38h-.1a1.94,1.94,0,0,1-2.05-1.37l.49-.12c.19.8.87.95,1.52,1a55,55,0,0,0-.33-6.26l.49-.05c.39,4.21.46,6.47.2,6.73Z"/><path class="cls-11" d="M250.25,274.94c-2.19,0-3.87-2.91-3.94-3l.44-.25s1.6,2.79,3.5,2.79h.05c1.06,0,2.06-.94,2.95-2.72l.45.22c-1,2-2.13,3-3.39,3Z"/><path class="cls-11" d="M240.33,269.82l-.5,0c.08-3-1.16-3.45-1.17-3.46l.14-.48C238.86,265.88,240.43,266.34,240.33,269.82Z"/><path class="cls-11" d="M261.11,271l-.5,0c.28-3.47,1.89-3.76,2-3.77l.08.5S261.36,267.94,261.11,271Z"/><path class="cls-19" d="M237.84,263s1.3,1.68,4.38.19c7.78-3.75,9.37-12.25,9.37-12.25s.76,5.88,1.88,7.88,6.6,5.81,7.86,5.46,4.61-7.65-1.94-12.74-8.21-3.12-12.06-1.54S234.72,257.7,237.84,263Z"/><circle class="cls-19" cx="252.1" cy="243.54" r="7.3"/><path class="cls-4" d="M250.81,303s-6.49-17.5-10.73-15.25-7.68,15-4.21,17.25S250.81,303,250.81,303Z"/><path class="cls-4" d="M252.1,303s6.48-17.5,10.72-15.25,7.69,15,4.21,17.25S252.1,303,252.1,303Z"/><path class="cls-5" d="M267,286.3s-1.87,57.85,1.43,64.22,18.89,3.63,20.66-1.38-.92-50.88-2.12-54.38S281.74,283.27,267,286.3Z"/><path class="cls-5" d="M239,286.3s1.86,57.85-1.43,64.22-18.89,3.63-20.66-1.38.92-50.88,2.12-54.38S224.32,283.27,239,286.3Z"/><path class="cls-7" d="M182,372.78s-8.57-38.62,15.76-39.33,77.39,43.32,60.34,59.15S183.22,402.94,182,372.78Z"/><path class="cls-7" d="M325.93,372.78s4.79-38.71-19.54-39.42S223,376.77,240.08,392.6,324.74,402.94,325.93,372.78Z"/><path class="cls-4" d="M81,399.92H257s-16.85-59.45-68.31-59.05S115.66,389,77.3,362.74C77.3,362.74,67,387.43,81,399.92Z"/><path class="cls-4" d="M419,399.92H243s16.85-59.45,68.31-59.05,73,48.17,111.36,21.87C422.7,362.74,433,387.43,419,399.92Z"/><path class="cls-26" d="M235,286.86s0-6.6-1.33-10.81-2.11-9.79-.87-7.87,2.59,4.67,2.59,4.67-1.28-5-.52-5.15,3.8,4.61,3.8,4.61-2.47-4.55-.49-4.33,11.74,12.36,6.24,23.49C242.08,296.13,238.69,291.42,235,286.86Z"/><path class="cls-5" d="M234.44,283.75s9.49,1.08,12.31,6.19-22.11,53.84-33.51,54.13-17.31-8.71-19.1-10.71S224.55,279.65,234.44,283.75Z"/><path class="cls-26" d="M266.08,286.86s0-6.6,1.33-10.81,2.11-9.79.88-7.87-2.59,4.67-2.59,4.67,1.27-5,.51-5.15-3.79,4.61-3.79,4.61,2.46-4.55.48-4.33-11.65,14.46-6.24,23.49C259.34,295.93,262.36,291.42,266.08,286.86Z"/><path class="cls-5" d="M266.08,283.75s-9.48,1.08-12.3,6.19,22.11,53.84,33.51,54.13,17.31-8.71,19.1-10.71S276,279.65,266.08,283.75Z"/><path class="cls-5" d="M231.58,286.3s-4.73,40.78-8,47.15-27.65,4.92-29.42-.09,16.27-35.1,17.47-38.6S216.87,283.27,231.58,286.3Z"/><path class="cls-5" d="M272.89,286.3s4.72,40.78,8,47.15,23.72,4.92,25.49-.09-15.48-34.82-16.67-38.31S286.09,283.52,272.89,286.3Z"/><path class="cls-23" d="M299.86,322.65c-7.81-18.82-22.61-35.12-27-36.11l.11-.49c5.09,1.14,20,18.63,27.38,36.41Z"/><path class="cls-23" d="M276.4,336.05c-.09-.14-8.33-14-10.08-15.95l.37-.34c1.79,2,9.79,15.46,10.13,16Z"/><path class="cls-11" d="M233.76,273.47l-.18-.47c.18-.07,4.48-1.65,6.15-.81l-.23.44C238.28,272,234.94,273,233.76,273.47Z"/><path class="cls-23" d="M245.19,297.74c-2.62-4.12-18.78-10.86-18.94-10.92l.19-.47c.67.28,16.47,6.87,19.17,11.12Z"/><path class="cls-23" d="M199.73,322.22l-.46-.2c4.12-9.64,22.7-30.64,22.89-30.85l.37.33C222.35,291.71,203.82,312.65,199.73,322.22Z"/><path class="cls-23" d="M222.53,337.86l-.37-.34c.14-.15,14-15.77,16.33-25.92l.48.11C236.62,322,222.67,337.7,222.53,337.86Z"/><rect class="cls-11" x="81.04" y="399.92" width="340.58" height="17.84"/><path class="cls-23" d="M210.09,342.58c-5,0-11-1.8-14.34-9.38a.33.33,0,0,1,0-.37c.25-.29.88-.12,3.53.67,4.65,1.36,13.29,3.91,23,3.94v.5c-9.8,0-18.49-2.59-23.16-4-1.28-.37-2.42-.71-2.89-.77,6.16,13.67,21.64,7.5,21.8,7.44l.19.46A24.32,24.32,0,0,1,210.09,342.58Z"/><path class="cls-23" d="M255.16,296.37l-.25-.44c.54-.31,13.23-7.7,18-7.24l-.05.5C268.27,288.73,255.29,296.29,255.16,296.37Z"/><path class="cls-23" d="M288.11,339.23a25.45,25.45,0,0,1-8.19-1.34l.18-.47c.16.06,16,6,24.52-7.92l.42.26A18.89,18.89,0,0,1,288.11,339.23Z"/><path class="cls-4" d="M246,271.2a3.58,3.58,0,1,1,3.58-3.58A3.58,3.58,0,0,1,246,271.2Zm0-6.66a3.08,3.08,0,1,0,3.08,3.08A3.08,3.08,0,0,0,246,264.54Z"/><path class="cls-4" d="M255,271.2a3.58,3.58,0,1,1,3.57-3.58A3.58,3.58,0,0,1,255,271.2Zm0-6.66a3.08,3.08,0,1,0,3.07,3.08A3.08,3.08,0,0,0,255,264.54Z"/><rect class="cls-4" x="249.13" y="266.97" width="2.97" height="0.5"/><rect class="cls-4" x="241.03" y="263.16" width="0.5" height="3.96" transform="matrix(0.55, -0.83, 0.83, 0.55, -112.88, 320.69)"/><polygon class="cls-4" points="258.45 266.46 258.28 266 261.64 264.71 261.82 265.18 258.45 266.46"/><path class="cls-16" d="M246.62,400c-13.49-29.08-25.94-42.69-41.62-45.52-15.07-2.71-32.45,4.5-56.5,14.47-5.78,2.39-11.76,4.87-18.23,7.43-25,9.89-41.83,11.49-50,4.74-6.32-5.23-4.78-13.75-4.77-13.84l.49.1c0,.08-1.49,8.32,4.61,13.35,5.51,4.56,18.57,7.42,49.49-4.81,6.46-2.56,12.44-5,18.22-7.44,24.13-10,41.57-17.22,56.78-14.49,15.86,2.86,28.42,16.55,42,45.8Z"/><path class="cls-16" d="M238.53,400.65c-.2-.26-20.18-26.27-52.33-23.6-10.83.89-24.83,4.84-39.65,9-30.14,8.49-61.3,17.27-72.28,2.63l.4-.3c10.77,14.37,41.77,5.64,71.74-2.81,14.85-4.19,28.87-8.14,39.75-9,32.43-2.69,52.57,23.54,52.77,23.8Z"/><path class="cls-16" d="M144.26,400.15l-.17-.47c16.19-6,39.46-12.19,58.4-7.85,11.37,2.6,15.71,7.71,15.89,7.93l-.39.32c0-.06-4.44-5.22-15.67-7.78C191.94,389.94,173.44,389.38,144.26,400.15Z"/><path class="cls-16" d="M253.7,400l-.45-.21c13.56-29.25,26.11-42.94,42-45.8,15.2-2.74,32.65,4.49,56.78,14.49,5.78,2.4,11.75,4.88,18.22,7.44,17.06,6.75,39.5,13.06,49.49,4.81,6.09-5,4.62-13.27,4.6-13.35l.49-.1c0,.09,1.55,8.61-4.77,13.84-8.16,6.75-25,5.15-50-4.74-6.47-2.56-12.44-5-18.23-7.43-24.05-10-41.43-17.18-56.49-14.47C279.63,357.33,267.18,370.94,253.7,400Z"/><path class="cls-16" d="M261.78,400.65l-.4-.3c.2-.26,20.34-26.49,52.78-23.8,10.87.9,24.89,4.85,39.74,9,30,8.45,61,17.18,71.75,2.81l.4.3c-11,14.64-42.15,5.86-72.28-2.63-14.83-4.18-28.83-8.13-39.65-9C282,374.39,262,400.39,261.78,400.65Z"/><path class="cls-16" d="M356.05,400.15c-16.13-5.95-39.3-12.14-58.11-7.83-11.21,2.56-15.57,7.7-15.62,7.76l-.38-.32c.18-.22,4.52-5.33,15.89-7.93,10.45-2.39,29.06-3,58.39,7.85Z"/><path class="cls-19" d="M241.32,263.83l-.08-.5c.44-.07,10.81-2,10.1-13.23l.49,0c.39,6.12-2.49,9.54-5,11.33A14.64,14.64,0,0,1,241.32,263.83Z"/><path class="cls-19" d="M246.89,248.51c-1.66-.55-2.63-1.45-2.89-2.66-.68-3.23,4-7.52,4.18-7.7l.33.37s-4.64,4.28-4,7.23c.22,1,1.08,1.8,2.56,2.29Z"/><path class="cls-19" d="M256.4,249.71l-.12-.49s2.59-.64,3.33-2.64c.52-1.41,0-3.16-1.45-5.22l.41-.3c1.58,2.21,2.09,4.12,1.51,5.7C259.24,249,256.51,249.68,256.4,249.71Z"/><path class="cls-19" d="M232.76,280.49a16.22,16.22,0,0,1-2.19-10.72,10.37,10.37,0,0,1,2.8-5.62c1.1-1.26,1.89-2.16,1.23-4.51-.79-2.82,1.44-7.18,4-9.6,1.87-1.81,3.78-2.52,5.37-2l-.15.47c-1.41-.45-3.14.22-4.88,1.89-2.77,2.66-4.49,6.75-3.82,9.11.73,2.6-.19,3.65-1.34,5a9.9,9.9,0,0,0-2.69,5.37,15.67,15.67,0,0,0,2.12,10.36Z"/><path class="cls-27" d="M243,260.83l-.11-.49c4.48-1,6.27-5.07,6.45-8.2.07-1.42-.24-2.13-.42-2.2s-.2.06-.36.29c-1.87,2.62-10.19,9.62-10.54,9.92l-.33-.38c.09-.07,8.63-7.26,10.46-9.83.38-.52.71-.54.93-.47.66.23.82,1.55.76,2.7C249.64,255.47,247.74,259.73,243,260.83Z"/><path class="cls-27" d="M251.54,246.52c-2-1.83-1.21-5.22-1.17-5.37l.49.12s-.74,3.25,1,4.88Z"/><path class="cls-27" d="M252.9,246.6a3.4,3.4,0,0,1-.35,0l-.35-.05.17-.32a22.45,22.45,0,0,0,2.16-6.29l.49.08a22.67,22.67,0,0,1-2,6.1,2.33,2.33,0,0,0,1.42-.54,3.57,3.57,0,0,0,.9-2.9l.5,0a4,4,0,0,1-1.08,3.3A2.77,2.77,0,0,1,252.9,246.6Z"/><path class="cls-27" d="M260.65,261.23c-.22-.34-5.56-8.18-6.8-11.05l.46-.19c1.22,2.82,6.7,10.87,6.76,10.95Z"/><path class="cls-27" d="M264.47,266c-.37-7.47-5.22-13.66-5.27-13.72l.39-.31c.05.06,5,6.38,5.38,14Z"/><path class="cls-19" d="M268.75,266.23c-.05-6-1.75-9.64-3.17-11.61a9,9,0,0,0-3.08-2.85l.21-.45c.26.12,6.44,3,6.54,14.91Z"/><path class="cls-11" d="M266.3,273.38c-1.13-1.56-5.17-.74-5.21-.73l-.1-.49c.17,0,4.4-.89,5.72.93Z"/></g></svg>